External Loads File
version=1
nRows=55
nColumns=13
Range=5.000000e-03-10 seconds
endheader
time 	forceRightX 	forceRightY 	forceRightZ 	pointRightX 	pointRightY 	pointRightZ 	forceLeftX 	forceLeftY 	forceLeftZ 	pointLeftX 	pointLeftY 	pointLeftZ 		
0.005000 14.760662 158.409210 -0.000000 0.396442 0.352565 -0.099166 61.008272 191.861462 -0.000000 0.084786 0.287360 -0.337110
0.010000 14.179120 158.614437 -0.000000 0.396428 0.352630 -0.099168 61.438250 191.840624 -0.000000 0.084788 0.287298 -0.337096
0.015000 13.640199 158.821689 -0.000000 0.396417 0.352690 -0.099175 62.001940 191.842214 -0.000000 0.084774 0.287259 -0.337100
0.020000 13.151172 159.035221 -0.000000 0.396411 0.352755 -0.099093 62.650509 191.877912 -0.000000 0.084920 0.287214 -0.336646
0.025000 12.560046 159.262340 -0.000000 0.396479 0.353235 -0.099078 63.135495 191.991839 -0.000000 0.084838 0.287154 -0.336696
0.030000 12.294777 159.461079 -0.000000 0.396439 0.353186 -0.099067 63.926784 191.995038 -0.000000 0.084825 0.287122 -0.336721
0.035000 12.020410 159.643259 -0.000000 0.396419 0.353270 -0.099018 64.635114 192.015568 -0.000000 0.084834 0.287092 -0.336747
0.040000 11.767610 159.785699 -0.000000 0.396419 0.353364 -0.099026 65.338425 192.044990 -0.000000 0.084837 0.287024 -0.336744
0.045000 11.568816 159.870947 -0.000000 0.396394 0.353446 -0.099047 66.074015 192.066326 -0.000000 0.084845 0.286979 -0.336741
0.050000 11.393887 159.898102 -0.000000 0.396366 0.353532 -0.099032 66.758689 192.075957 -0.000000 0.084845 0.286915 -0.336746
0.055000 10.834317 159.899331 -0.000000 0.396336 0.354426 -0.099018 66.860297 192.229114 -0.000000 0.084853 0.286826 -0.336761
0.060000 10.717207 159.820652 -0.000000 0.396309 0.354484 -0.099018 67.364143 192.177236 -0.000000 0.084869 0.286787 -0.336755
0.065000 10.591272 159.695124 -0.000000 0.396276 0.354553 -0.099015 67.729494 192.117786 -0.000000 0.084871 0.286713 -0.336758
0.070000 10.510607 159.521476 -0.000000 0.396236 0.354595 -0.099013 68.001246 192.036684 -0.000000 0.084879 0.286657 -0.336741
0.075000 10.432790 159.308296 -0.000000 0.396207 0.354651 -0.099005 68.083890 191.947892 -0.000000 0.084882 0.286547 -0.336735
0.080000 10.419586 159.062988 -0.000000 0.396189 0.354712 -0.099026 68.000788 191.807176 -0.000000 0.084888 0.286491 -0.336727
0.085000 10.444927 158.802047 -0.000000 0.396166 0.354754 -0.099039 67.694250 191.603629 -0.000000 0.084896 0.286422 -0.336733
0.090000 10.490116 158.539798 -0.000000 0.396145 0.354814 -0.099031 67.177375 191.334043 -0.000000 0.084903 0.286362 -0.336745
0.095000 10.888312 158.262128 -0.000000 0.396118 0.354201 -0.099025 66.934417 190.870916 -0.000000 0.084912 0.286319 -0.336747
0.100000 10.993542 158.016127 -0.000000 0.396110 0.354291 -0.099027 66.240316 190.517355 -0.000000 0.084920 0.286291 -0.336738
0.105000 11.136221 157.780068 -0.000000 0.396091 0.354359 -0.099042 65.492849 190.150748 -0.000000 0.084928 0.286220 -0.336746
0.110000 11.334818 157.552043 -0.000000 0.396077 0.354419 -0.099048 64.715253 189.759715 -0.000000 0.084934 0.286175 -0.336758
0.115000 11.538296 157.336281 -0.000000 0.396046 0.354488 -0.099052 63.895103 189.360413 -0.000000 0.084948 0.286122 -0.336765
0.120000 11.723018 157.135406 -0.000000 0.396035 0.354567 -0.099061 63.093567 188.968324 -0.000000 0.084953 0.286056 -0.336763
0.125000 11.870006 156.945077 -0.000000 0.396022 0.354643 -0.099061 62.393165 188.596345 -0.000000 0.084961 0.285997 -0.336765
0.130000 11.943445 156.752448 -0.000000 0.396015 0.354715 -0.099075 61.839435 188.256138 -0.000000 0.084959 0.285954 -0.336767
0.135000 11.880542 156.544214 -0.000000 0.395991 0.354789 -0.099076 61.385074 187.970042 -0.000000 0.084956 0.285873 -0.336772
0.140000 11.709214 156.308645 -0.000000 0.395985 0.354882 -0.099082 61.020854 187.733104 -0.000000 0.084966 0.285812 -0.336788
0.145000 11.477398 156.047787 -0.000000 0.395978 0.354941 -0.099085 60.755019 187.543743 -0.000000 0.084970 0.285734 -0.336795
0.150000 11.212558 155.776759 -0.000000 0.395951 0.355012 -0.099067 60.619719 187.413298 -0.000000 0.084963 0.285661 -0.336793
0.155000 10.962482 155.509091 -0.000000 0.395922 0.355077 -0.099069 60.668312 187.331515 -0.000000 0.084960 0.285613 -0.336777
0.160000 10.701667 155.256444 -0.000000 0.395907 0.355170 -0.099065 60.801784 187.293725 -0.000000 0.084967 0.285524 -0.336780
0.165000 10.501747 155.019371 -0.000000 0.395898 0.355260 -0.099081 61.022807 187.251869 -0.000000 0.084977 0.285443 -0.336792
0.170000 10.405045 154.799813 -0.000000 0.395870 0.355334 -0.099079 61.357252 187.187249 -0.000000 0.084981 0.285370 -0.336778
0.175000 10.391404 154.597902 -0.000000 0.395834 0.355438 -0.099070 61.812329 187.126295 -0.000000 0.084984 0.285266 -0.336779
0.180000 10.464193 154.401921 -0.000000 0.395821 0.355555 -0.099082 62.433138 187.086455 -0.000000 0.084994 0.285153 -0.336784
0.185000 10.586934 154.200836 -0.000000 0.395773 0.355687 -0.099062 63.171647 187.080816 -0.000000 0.085011 0.285037 -0.336778
0.190000 10.755491 153.987376 -0.000000 0.395738 0.355816 -0.099050 63.949357 187.085917 -0.000000 0.085037 0.284919 -0.336783
0.195000 10.973314 153.757432 -0.000000 0.395709 0.355943 -0.099079 64.679598 187.065581 -0.000000 0.085035 0.284812 -0.336760
0.200000 10.847007 153.535088 -0.000000 0.395673 0.356851 -0.099066 64.853555 187.159557 -0.000000 0.085052 0.284684 -0.336748
0.205000 11.104223 153.265295 -0.000000 0.395649 0.356960 -0.099073 65.378069 187.043564 -0.000000 0.085074 0.284547 -0.336750
0.210000 11.310623 152.980141 -0.000000 0.395621 0.357133 -0.099099 65.717813 186.886709 -0.000000 0.085094 0.284361 -0.336736
0.215000 11.495113 152.682215 -0.000000 0.395584 0.357379 -0.099097 65.880048 186.673994 -0.000000 0.085106 0.284208 -0.336756
0.220000 12.039638 152.342174 -0.000000 0.395541 0.356799 -0.099103 66.365077 186.258199 -0.000000 0.085145 0.284064 -0.336739
0.225000 12.130791 152.018684 -0.000000 0.395491 0.357017 -0.099096 66.282229 186.024240 -0.000000 0.085189 0.283864 -0.336758
0.230000 12.146392 151.683214 -0.000000 0.395447 0.357194 -0.099091 66.182596 185.828761 -0.000000 0.085216 0.283655 -0.336786
0.235000 12.050288 151.350868 -0.000000 0.395409 0.357394 -0.099101 66.028184 185.684279 -0.000000 0.085245 0.283445 -0.336787
0.240000 11.860494 151.042018 -0.000000 0.395359 0.357612 -0.099116 65.772807 185.567623 -0.000000 0.085269 0.283224 -0.336774
0.245000 11.607768 150.778247 -0.000000 0.395312 0.357842 -0.099106 65.373380 185.449109 -0.000000 0.085300 0.282965 -0.336768
0.250000 11.412826 150.567275 -0.000000 0.395269 0.358054 -0.099086 64.956520 185.262373 -0.000000 0.085323 0.282812 -0.336793
0.255000 10.904271 150.438631 -0.000000 0.395241 0.358988 -0.099113 64.118001 185.162935 -0.000000 0.085347 0.282626 -0.336788
0.260000 10.766098 150.330998 -0.000000 0.395201 0.359226 -0.099116 63.755909 184.868794 -0.000000 0.085356 0.282459 -0.336767
0.265000 10.655066 150.255633 -0.000000 0.395189 0.359524 -0.099132 63.445456 184.544358 -0.000000 0.085374 0.282290 -0.336767
0.270000 10.938376 150.172944 -0.000000 0.395167 0.358991 -0.099139 63.606052 184.054021 -0.000000 0.085395 0.282055 -0.336735
0.275000 10.935233 150.120643 -0.000000 0.395134 0.359206 -0.099111 63.389899 183.714764 -0.000000 0.085413 0.281824 -0.336727
